PathFileType	4	(X/Y/Z)	Patient4_TMGait_0pt8_01_left_24.trc.trc
DataRate	CameraRate	NumFrames	NumMarkers	Units	OrigDataRate	OrigDataStartFrame	OrigNumFrames
86.419753086420	86.419753086420	4	33	mm	86.419753086420	53	       141
Frame#	Time	Sacral			L.Shoulder			Chest			R.Shoulder			Neck			R.ASIS			L.ASIS			R.Thigh.Superior			R.Thigh.Lateral			R.Thigh.Inferior			R.Patella			L.Thigh.Superior			L.Thigh.Lateral			L.Thigh.Inferior			L.Patella			L.Shank.Superior			L.Shank.Lateral			L.Shank.Inferior			R.Shank.Superior			R.Shank.Lateral			R.Shank.Inferior			R.Heel			R.Midfoot.Superior			R.Midfoot.Lateral			R.Toe			L.Heel			L.Midfoot.Lateral			L.Midfoot.Superior			L.Toe			L.Elbow			L.Wrist			R.Elbow			R.Wrist			
		X1	Y1	Z1	X2	Y2	Z2	X3	Y3	Z3	X4	Y4	Z4	X5	Y5	Z5	X6	Y6	Z6	X7	Y7	Z7	X8	Y8	Z8	X9	Y9	Z9	X10	Y10	Z10	X11	Y11	Z11	X12	Y12	Z12	X13	Y13	Z13	X14	Y14	Z14	X15	Y15	Z15	X16	Y16	Z16	X17	Y17	Z17	X18	Y18	Z18	X19	Y19	Z19	X20	Y20	Z20	X21	Y21	Z21	X22	Y22	Z22	X23	Y23	Z23	X24	Y24	Z24	X25	Y25	Z25	X26	Y26	Z26	X27	Y27	Z27	X28	Y28	Z28	X29	Y29	Z29	X30	Y30	Z30	X31	Y31	Z31	X32	Y32	Z32	X33	Y33	Z33	

53	26.791714285714	885.318799161324	1012.200707065653	447.050010052547	1064.244565006589	1441.990009870748	276.431237705247	1164.042741398587	1370.434974650630	439.067699978053	1075.955830394131	1438.183126139985	613.692681686652	1045.218928849034	1500.523914794178	433.888668166736	1110.482470453184	948.623540629434	565.321525276447	1099.090272504269	967.646902291926	291.664892958901	1191.834409431353	777.197725745409	541.926360209456	1149.828233120357	657.890514626115	618.043130039011	1241.442385011005	615.748252287322	542.497084762555	1257.258045352414	501.159898052997	567.806299267409	1141.652928920814	751.628828072816	317.831134499730	1043.285544764595	638.062105983140	266.841638663800	1127.766210144156	557.859567623244	326.537836153823	1126.150533962189	489.613737141540	338.477345710074	1098.827911310169	418.086066747381	334.498635611358	1005.720095428647	302.741361766312	293.253213305331	1060.824516448731	193.732914760369	365.265010093151	1175.800551102172	430.047344472084	575.045795464383	1049.826564928442	402.740837554115	633.507312767257	1028.059039375002	293.488990173974	587.563489656761	825.426919534835	252.491970641122	556.652778836484	983.982595237302	173.332284944161	601.111765311069	873.856097652686	184.637433371469	630.512193811707	1032.274157063735	52.143652935071	626.686243601557	934.868216062454	39.089520035485	421.710605868881	1003.036155906500	35.999248758497	336.018429517002	1088.080053231397	96.615239287276	356.670178064799	1214.123963212674	44.610701043129	319.987220702016	1077.143276770832	1095.034476090619	142.018799807858	1202.570024127361	866.333540844310	133.911120749342	1031.673679128512	1086.102971162350	716.717894039793	1191.283811156280	881.982635198014	725.769656006850	
54	26.803285714286	883.889102585630	1012.785384246650	445.982444064633	1065.139929261306	1442.700549337554	275.921820567407	1163.586212777288	1370.597448276930	439.115625547846	1074.533455725462	1438.273720218175	613.212663116486	1045.102397050885	1501.030819549396	433.319693523138	1108.850069224573	949.691924714423	564.900356752667	1097.886801878268	968.105258557194	291.107334602964	1192.807078986638	781.542093180352	540.645909612259	1154.280764071702	661.503008077264	617.489977784569	1246.117685970660	621.175233008551	541.381678935783	1265.055028134632	507.328189534598	566.902392674992	1137.659725457071	750.704406433371	317.512620693941	1037.264808079913	638.483763234911	266.363605794120	1120.341721301937	557.047828780978	326.051745108111	1117.605355798256	489.101670744812	338.184794141446	1090.353129862890	418.055943460944	334.042672462706	996.783858590214	302.999689151560	292.953136726987	1051.740129165517	193.823800994454	364.878425880568	1186.129919246983	433.629787809315	574.324538279080	1061.578616242324	401.156683928887	633.100961224700	1044.044520494145	291.125408814759	587.010413215688	842.855831381784	241.332100127698	556.580952504345	1005.116860912639	169.777917133552	601.080101998647	894.584121555061	176.175635526524	630.666825186214	1058.838371180020	51.079876584704	626.848289091379	925.529909367202	39.228387012190	421.620458096672	993.754546874642	36.023501639903	335.966014492434	1078.860115957772	96.582235651655	356.501919485113	1204.867223478393	44.417802065810	319.894193345382	1088.956536491013	1097.870072104244	138.428681058047	1226.087731886628	875.918688004843	130.834711561494	1022.505018734422	1086.867905887755	714.743727861378	1163.191022495268	868.683451117926	726.522711083409	
55	26.814857142857	882.453970184505	1013.217295049780	445.043911912793	1066.104935592344	1443.252542950881	275.525985730815	1163.207971038856	1370.573205252315	439.241663303514	1073.246214054861	1438.182497064262	612.827422601446	1045.031241732553	1501.368701694452	432.863267679718	1107.225830596495	950.510810131444	564.567331275441	1096.680893065845	968.390236239175	290.640335759672	1193.468947989804	785.435815006608	539.646553347938	1158.116585371946	664.758199459923	617.083789503057	1250.082956545333	626.072199251611	540.474384372681	1271.927445463526	513.226847734111	566.169421189699	1133.630799995452	749.727234652098	317.452347080448	1031.379645460738	638.844512681562	265.942988565399	1112.983387233913	556.225689961352	325.680885491261	1109.141484686798	488.590092607576	337.963640831635	1081.958819149653	417.999127706415	333.659358532682	987.935024648349	303.244047476143	292.702037602159	1042.691848846758	193.902202650299	364.559090257897	1195.898982964648	436.885620939638	573.755044374730	1073.245427501806	398.665403278521	632.917672475592	1060.484785533751	287.971171450413	586.653488369524	861.418190190304	228.618044679023	556.774698004281	1027.303213441524	165.426476041932	601.298914594961	916.546848190929	166.520344211275	631.086060793541	1086.754759295337	49.557590355358	627.266387480425	916.200465314107	39.356939833488	421.539779652908	984.474661202134	36.046127464437	335.926018388236	1069.638207721062	96.552700236227	356.360996012196	1195.605103391265	44.246239873119	319.813497146888	1100.214397193588	1100.926599500976	135.146084813508	1248.911041679591	886.471374855921	128.309808063211	1013.537908789871	1087.683048042792	712.839552021056	1134.525743080306	857.569433899112	727.245359247709	
56	26.826428571429	881.032017239758	1013.493191584830	444.228643714178	1067.133772993177	1443.628766763229	275.253774494150	1162.914930916926	1370.353496182445	439.453265569150	1072.107029548110	1437.900132325240	612.548927158625	1045.012056363501	1501.526231647498	432.526512490621	1105.621571649883	951.058014577865	564.317933406636	1095.495150212084	968.499916937454	290.257294991471	1193.810279154330	788.789903567980	538.899995410080	1161.269325704822	667.559262907753	616.802242265071	1253.282097575195	630.315196088168	539.765796869093	1277.772633995750	518.735185658613	565.591008659106	1129.585988952874	748.686992213766	317.605643230676	1025.630540770466	639.137523152087	265.570839800928	1105.700691525913	555.385513124027	325.402829864825	1100.778241178817	488.075464928453	337.786228618212	1073.647215606386	417.909410080681	333.335108021931	979.176072714645	303.467143419073	292.484097156317	1033.678300229200	193.961757577608	364.303057151117	1205.021297596211	439.769998479590	573.325895335600	1084.833266900680	395.318789531331	632.966577012693	1077.350313722730	284.159548637178	586.499399354277	881.216930983483	214.602311411304	557.257049857246	1050.498826812795	160.487499211832	601.738924062508	939.789824923614	155.938648301369	631.778242429157	1115.897586681299	47.866562417783	627.916935872607	906.883500302192	39.472025025076	421.465779631442	975.194530731325	36.064256935183	335.895360729928	1060.412828506873	96.526139009959	356.243558420025	1186.337290406827	44.094667587882	319.744557746904	1110.867560547470	1104.118257990898	132.174281024498	1270.932172594518	897.916739797483	126.321346094869	1004.686334040337	1088.563017004613	711.012545455845	1105.621178610167	848.726988091554	727.931454578291	
